{
	"patcher" : 	{
		"fileversion" : 1,
		"appversion" : 		{
			"major" : 6,
			"minor" : 1,
			"revision" : 9,
			"architecture" : "x86"
		}
,
		"rect" : [ 164.0, 202.0, 847.0, 785.0 ],
		"bglocked" : 0,
		"openinpresentation" : 0,
		"default_fontsize" : 12.0,
		"default_fontface" : 0,
		"default_fontname" : "Arial",
		"gridonopen" : 0,
		"gridsize" : [ 15.0, 15.0 ],
		"gridsnaponopen" : 0,
		"statusbarvisible" : 2,
		"toolbarvisible" : 1,
		"boxanimatetime" : 200,
		"imprint" : 0,
		"enablehscroll" : 1,
		"enablevscroll" : 1,
		"devicewidth" : 0.0,
		"description" : "",
		"digest" : "",
		"tags" : "",
		"boxes" : [ 			{
				"box" : 				{
					"bubble" : 1,
					"fontname" : "Arial",
					"fontsize" : 24.0,
					"frgb" : 0.0,
					"id" : "obj-7",
					"linecount" : 2,
					"maxclass" : "comment",
					"numinlets" : 1,
					"numoutlets" : 0,
					"patching_rect" : [ 559.166687, 390.0, 154.833313, 64.0 ],
					"presentation_rect" : [ 534.166687, 386.0, 0.0, 0.0 ],
					"text" : "Audience window"
				}

			}
, 			{
				"box" : 				{
					"bubble" : 1,
					"fontname" : "Arial",
					"fontsize" : 24.0,
					"frgb" : 0.0,
					"id" : "obj-6",
					"linecount" : 2,
					"maxclass" : "comment",
					"numinlets" : 1,
					"numoutlets" : 0,
					"patching_rect" : [ 102.166687, 390.0, 108.0, 64.0 ],
					"presentation_rect" : [ 346.909729, 451.5, 0.0, 0.0 ],
					"text" : "Editor window"
				}

			}
, 			{
				"box" : 				{
					"bubble" : 1,
					"fontname" : "Arial",
					"fontsize" : 24.0,
					"frgb" : 0.0,
					"id" : "obj-10",
					"linecount" : 2,
					"maxclass" : "comment",
					"numinlets" : 1,
					"numoutlets" : 0,
					"patching_rect" : [ 255.909729, 221.5, 92.0, 64.0 ],
					"text" : "Load Movie"
				}

			}
, 			{
				"box" : 				{
					"id" : "obj-3",
					"maxclass" : "jit.pwindow",
					"numinlets" : 1,
					"numoutlets" : 2,
					"outlettype" : [ "", "" ],
					"patching_rect" : [ 496.0, 470.0, 260.0, 195.0 ],
					"presentation_rect" : [ 406.0, 454.0, 0.0, 0.0 ]
				}

			}
, 			{
				"box" : 				{
					"id" : "obj-2",
					"maxclass" : "jit.pwindow",
					"numinlets" : 1,
					"numoutlets" : 2,
					"outlettype" : [ "", "" ],
					"patching_rect" : [ 52.0, 470.0, 260.0, 195.0 ]
				}

			}
, 			{
				"box" : 				{
					"id" : "obj-1",
					"maxclass" : "bpatcher",
					"name" : "EditorAndPlaylist.maxpat",
					"numinlets" : 1,
					"numoutlets" : 2,
					"outlettype" : [ "jit_matrix", "jit_matrix" ],
					"patching_rect" : [ 52.0, 314.0, 662.0, 67.0 ]
				}

			}
, 			{
				"box" : 				{
					"fontname" : "Arial",
					"fontsize" : 12.0,
					"frgb" : 0.0,
					"hidden" : 1,
					"id" : "obj-117",
					"maxclass" : "comment",
					"numinlets" : 1,
					"numoutlets" : 0,
					"patching_rect" : [ 130.166687, 135.5, 150.0, 20.0 ],
					"text" : "Drop folder or files"
				}

			}
, 			{
				"box" : 				{
					"fontname" : "Arial",
					"fontsize" : 12.0,
					"hidden" : 1,
					"id" : "obj-57",
					"maxclass" : "newobj",
					"numinlets" : 1,
					"numoutlets" : 2,
					"outlettype" : [ "", "" ],
					"patching_rect" : [ 130.166687, 183.0, 55.0, 20.0 ],
					"text" : "t s s"
				}

			}
, 			{
				"box" : 				{
					"fontname" : "Arial",
					"fontsize" : 12.0,
					"hidden" : 1,
					"id" : "obj-56",
					"maxclass" : "newobj",
					"numinlets" : 1,
					"numoutlets" : 1,
					"outlettype" : [ "bang" ],
					"patching_rect" : [ 80.166687, 274.0, 24.0, 20.0 ],
					"text" : "t b"
				}

			}
, 			{
				"box" : 				{
					"fontname" : "Arial",
					"fontsize" : 12.0,
					"hidden" : 1,
					"id" : "obj-55",
					"maxclass" : "newobj",
					"numinlets" : 1,
					"numoutlets" : 1,
					"outlettype" : [ "bang" ],
					"patching_rect" : [ 80.166687, 34.831001, 60.0, 20.0 ],
					"text" : "loadbang"
				}

			}
, 			{
				"box" : 				{
					"fontname" : "Arial",
					"fontsize" : 20.0,
					"id" : "obj-49",
					"items" : [ "bball.mov", ",", "blading.mov", ",", "countdown.mov", ",", "countdown15.mov", ",", "crashtest.mov", ",", "dishes.mov", ",", "dozer.mov", ",", "dvducks.mov", ",", "dvkite.mov", ",", "garbage.mov", ",", "oh.mov", ",", "ozone.mov", ",", "rain.mov", ",", "rca.mov", ",", "redball.mov", ",", "track1.mov", ",", "track2.mov", ",", "traffic.mov", ",", "wheel.mov" ],
					"maxclass" : "umenu",
					"numinlets" : 1,
					"numoutlets" : 3,
					"outlettype" : [ "int", "", "" ],
					"parameter_enable" : 0,
					"patching_rect" : [ 80.166687, 239.0, 152.0, 29.0 ]
				}

			}
, 			{
				"box" : 				{
					"fontname" : "Arial",
					"fontsize" : 13.0,
					"hidden" : 1,
					"id" : "obj-48",
					"maxclass" : "message",
					"numinlets" : 2,
					"numoutlets" : 1,
					"outlettype" : [ "" ],
					"patching_rect" : [ 80.166687, 65.0, 115.0, 19.0 ],
					"text" : "types MooV PICT"
				}

			}
, 			{
				"box" : 				{
					"fontname" : "Arial",
					"fontsize" : 12.0,
					"hidden" : 1,
					"id" : "obj-44",
					"maxclass" : "newobj",
					"numinlets" : 1,
					"numoutlets" : 2,
					"outlettype" : [ "", "int" ],
					"patching_rect" : [ 80.166687, 213.0, 52.0, 20.0 ],
					"text" : "folder"
				}

			}
, 			{
				"box" : 				{
					"fontname" : "Arial",
					"fontsize" : 13.0,
					"hidden" : 1,
					"id" : "obj-35",
					"maxclass" : "message",
					"numinlets" : 2,
					"numoutlets" : 1,
					"outlettype" : [ "" ],
					"patching_rect" : [ 130.166687, 89.627014, 42.0, 19.0 ],
					"text" : "types"
				}

			}
, 			{
				"box" : 				{
					"border" : 50.0,
					"bordercolor" : [ 0.0, 1.0, 0.913426, 1.0 ],
					"hidden" : 1,
					"id" : "obj-29",
					"maxclass" : "dropfile",
					"numinlets" : 1,
					"numoutlets" : 2,
					"outlettype" : [ "", "" ],
					"patching_rect" : [ 130.166687, 116.0, 155.0, 59.0 ],
					"rounded" : 2.0
				}

			}
 ],
		"lines" : [ 			{
				"patchline" : 				{
					"destination" : [ "obj-2", 0 ],
					"disabled" : 0,
					"hidden" : 0,
					"source" : [ "obj-1", 0 ]
				}

			}
, 			{
				"patchline" : 				{
					"destination" : [ "obj-3", 0 ],
					"disabled" : 0,
					"hidden" : 0,
					"source" : [ "obj-1", 1 ]
				}

			}
, 			{
				"patchline" : 				{
					"destination" : [ "obj-57", 0 ],
					"disabled" : 0,
					"hidden" : 0,
					"source" : [ "obj-29", 0 ]
				}

			}
, 			{
				"patchline" : 				{
					"destination" : [ "obj-29", 0 ],
					"disabled" : 0,
					"hidden" : 0,
					"source" : [ "obj-35", 0 ]
				}

			}
, 			{
				"patchline" : 				{
					"destination" : [ "obj-49", 0 ],
					"disabled" : 0,
					"hidden" : 0,
					"source" : [ "obj-44", 0 ]
				}

			}
, 			{
				"patchline" : 				{
					"destination" : [ "obj-44", 0 ],
					"disabled" : 0,
					"hidden" : 0,
					"source" : [ "obj-48", 0 ]
				}

			}
, 			{
				"patchline" : 				{
					"destination" : [ "obj-1", 0 ],
					"disabled" : 0,
					"hidden" : 0,
					"source" : [ "obj-49", 1 ]
				}

			}
, 			{
				"patchline" : 				{
					"destination" : [ "obj-56", 0 ],
					"disabled" : 0,
					"hidden" : 0,
					"source" : [ "obj-49", 0 ]
				}

			}
, 			{
				"patchline" : 				{
					"destination" : [ "obj-35", 0 ],
					"disabled" : 0,
					"hidden" : 0,
					"source" : [ "obj-55", 0 ]
				}

			}
, 			{
				"patchline" : 				{
					"destination" : [ "obj-48", 0 ],
					"disabled" : 0,
					"hidden" : 0,
					"source" : [ "obj-55", 0 ]
				}

			}
, 			{
				"patchline" : 				{
					"destination" : [ "obj-1", 0 ],
					"disabled" : 0,
					"hidden" : 0,
					"source" : [ "obj-56", 0 ]
				}

			}
, 			{
				"patchline" : 				{
					"destination" : [ "obj-1", 0 ],
					"disabled" : 0,
					"hidden" : 0,
					"source" : [ "obj-57", 1 ]
				}

			}
, 			{
				"patchline" : 				{
					"destination" : [ "obj-44", 0 ],
					"disabled" : 0,
					"hidden" : 0,
					"source" : [ "obj-57", 0 ]
				}

			}
 ],
		"dependency_cache" : [ 			{
				"name" : "EditorAndPlaylist.maxpat",
				"bootpath" : "/Users/student/Desktop",
				"patcherrelativepath" : ".",
				"type" : "JSON",
				"implicit" : 1
			}
, 			{
				"name" : "Editor 10.29.15.maxpat",
				"bootpath" : "/Users/student/Desktop",
				"patcherrelativepath" : ".",
				"type" : "JSON",
				"implicit" : 1
			}
, 			{
				"name" : "Playlist 10.29.15.maxpat",
				"bootpath" : "/Users/student/Desktop",
				"patcherrelativepath" : ".",
				"type" : "JSON",
				"implicit" : 1
			}
 ]
	}

}
